<svg width="443" height="110" viewBox="0 0 443 110" fill="none" xmlns="http://www.w3.org/2000/svg">
<path d="M153.875 71L150.32 61.918H138.875L135.359 71H132L143.289 42.3281H146.082L157.312 71H153.875ZM149.285 58.9297L145.965 50.082C145.535 48.9622 145.092 47.5885 144.637 45.9609C144.35 47.2109 143.94 48.5846 143.406 50.082L140.047 58.9297H149.285ZM160.281 68.9297C160.281 68.0573 160.477 67.3997 160.867 66.957C161.271 66.5013 161.844 66.2734 162.586 66.2734C163.341 66.2734 163.927 66.5013 164.344 66.957C164.773 67.3997 164.988 68.0573 164.988 68.9297C164.988 69.776 164.773 70.4271 164.344 70.8828C163.914 71.3385 163.328 71.5664 162.586 71.5664C161.922 71.5664 161.368 71.3646 160.926 70.9609C160.496 70.5443 160.281 69.8672 160.281 68.9297ZM188.016 63.4023C188.016 65.9154 187.104 67.875 185.281 69.2812C183.458 70.6875 180.984 71.3906 177.859 71.3906C174.474 71.3906 171.87 70.9544 170.047 70.082V66.8789C171.219 67.3737 172.495 67.7643 173.875 68.0508C175.255 68.3372 176.622 68.4805 177.977 68.4805C180.19 68.4805 181.857 68.0638 182.977 67.2305C184.096 66.3841 184.656 65.2122 184.656 63.7148C184.656 62.7253 184.454 61.918 184.051 61.293C183.66 60.6549 182.996 60.069 182.059 59.5352C181.134 59.0013 179.721 58.3958 177.82 57.7188C175.164 56.7682 173.263 55.6419 172.117 54.3398C170.984 53.0378 170.418 51.3385 170.418 49.2422C170.418 47.0417 171.245 45.2904 172.898 43.9883C174.552 42.6862 176.74 42.0352 179.461 42.0352C182.299 42.0352 184.91 42.556 187.293 43.5977L186.258 46.4883C183.901 45.4987 181.609 45.0039 179.383 45.0039C177.625 45.0039 176.251 45.3815 175.262 46.1367C174.272 46.8919 173.777 47.9401 173.777 49.2812C173.777 50.2708 173.96 51.0846 174.324 51.7227C174.689 52.3477 175.301 52.9271 176.16 53.4609C177.033 53.9818 178.361 54.5612 180.145 55.1992C183.139 56.2669 185.197 57.4128 186.316 58.6367C187.449 59.8607 188.016 61.4492 188.016 63.4023ZM192.898 68.9297C192.898 68.0573 193.094 67.3997 193.484 66.957C193.888 66.5013 194.461 66.2734 195.203 66.2734C195.958 66.2734 196.544 66.5013 196.961 66.957C197.391 67.3997 197.605 68.0573 197.605 68.9297C197.605 69.776 197.391 70.4271 196.961 70.8828C196.531 71.3385 195.945 71.5664 195.203 71.5664C194.539 71.5664 193.986 71.3646 193.543 70.9609C193.113 70.5443 192.898 69.8672 192.898 68.9297ZM233.016 50.7656C233.016 53.6562 232.026 55.8828 230.047 57.4453C228.081 58.9948 225.262 59.7695 221.59 59.7695H218.23V71H214.91V42.4453H222.312C229.448 42.4453 233.016 45.2188 233.016 50.7656ZM218.23 56.918H221.219C224.161 56.918 226.29 56.4427 227.605 55.4922C228.921 54.5417 229.578 53.0182 229.578 50.9219C229.578 49.0339 228.96 47.6276 227.723 46.7031C226.486 45.7786 224.559 45.3164 221.941 45.3164H218.23V56.918ZM242.332 59.125V71H239.012V42.4453H246.844C250.346 42.4453 252.931 43.1159 254.598 44.457C256.277 45.7982 257.117 47.8164 257.117 50.5117C257.117 54.2878 255.203 56.8398 251.375 58.168L259.129 71H255.203L248.289 59.125H242.332ZM242.332 56.2734H246.883C249.227 56.2734 250.945 55.8112 252.039 54.8867C253.133 53.9492 253.68 52.5495 253.68 50.6875C253.68 48.7995 253.12 47.4388 252 46.6055C250.893 45.7721 249.109 45.3555 246.648 45.3555H242.332V56.2734ZM288.523 56.6836C288.523 61.2539 287.365 64.8477 285.047 67.4648C282.742 70.082 279.533 71.3906 275.418 71.3906C271.212 71.3906 267.964 70.1081 265.672 67.543C263.393 64.9648 262.254 61.332 262.254 56.6445C262.254 51.9961 263.4 48.3958 265.691 45.8438C267.983 43.2786 271.238 41.9961 275.457 41.9961C279.559 41.9961 282.762 43.2982 285.066 45.9023C287.371 48.5065 288.523 52.1003 288.523 56.6836ZM265.77 56.6836C265.77 60.5508 266.59 63.487 268.23 65.4922C269.884 67.4844 272.28 68.4805 275.418 68.4805C278.582 68.4805 280.971 67.4844 282.586 65.4922C284.201 63.5 285.008 60.5638 285.008 56.6836C285.008 52.8424 284.201 49.9323 282.586 47.9531C280.984 45.9609 278.608 44.9648 275.457 44.9648C272.293 44.9648 269.884 45.9674 268.23 47.9727C266.59 49.9648 265.77 52.8685 265.77 56.6836ZM313.016 50.7656C313.016 53.6562 312.026 55.8828 310.047 57.4453C308.081 58.9948 305.262 59.7695 301.59 59.7695H298.23V71H294.91V42.4453H302.312C309.448 42.4453 313.016 45.2188 313.016 50.7656ZM298.23 56.918H301.219C304.161 56.918 306.29 56.4427 307.605 55.4922C308.921 54.5417 309.578 53.0182 309.578 50.9219C309.578 49.0339 308.96 47.6276 307.723 46.7031C306.486 45.7786 304.559 45.3164 301.941 45.3164H298.23V56.918ZM334.93 71H319.012V42.4453H334.93V45.3945H322.332V54.5938H334.168V57.5234H322.332V68.0312H334.93V71ZM344.598 59.125V71H341.277V42.4453H349.109C352.612 42.4453 355.197 43.1159 356.863 44.457C358.543 45.7982 359.383 47.8164 359.383 50.5117C359.383 54.2878 357.469 56.8398 353.641 58.168L361.395 71H357.469L350.555 59.125H344.598ZM344.598 56.2734H349.148C351.492 56.2734 353.211 55.8112 354.305 54.8867C355.398 53.9492 355.945 52.5495 355.945 50.6875C355.945 48.7995 355.385 47.4388 354.266 46.6055C353.159 45.7721 351.375 45.3555 348.914 45.3555H344.598V56.2734ZM374.793 71H371.473V45.3945H362.43V42.4453H383.836V45.3945H374.793V71ZM395.418 56.7227L403.035 42.4453H406.629L397.098 59.9258V71H393.738V60.082L384.227 42.4453H387.859L395.418 56.7227Z" fill="#9C9C9C"/>
<rect x="0.5" y="0.5" width="109" height="109" fill="#9C9C9C" stroke="#9C9C9C"/>
<path d="M41.5149 11.1024L81.9276 82.6263L81.9765 82.7128L82.0169 82.6221L88.1817 68.7516L88.1919 68.7286L88.1796 68.7067L70.4698 37.242L85.8263 11.0951L90.3897 18.1249L80.0007 37.2176L79.9875 37.2419L80.0011 37.266L98.0969 69.4816L81.9701 99.7418L41.5581 27.4702L41.5141 27.3916L41.4706 27.4705L18.7628 68.6619L11.9134 64.5894L41.5149 11.1024Z" fill="white" stroke="white" stroke-width="0.1"/>
</svg>
